# AST/ASF file generated using VICON BodyLanguage
# -----------------------------------------------
:version 1.10
:name VICON
:units
  mass 1.0
  length 0.45
  angle deg
:documentation
   .ast/.asf automatically generated from VICON data using
   VICON BodyBuilder and BodyLanguage model FoxedUp or BRILLIANT.MOD
:root
   order TX TY TZ RX RY RZ
   axis XYZ
   position 0 0 0  
   orientation 0 0 0 
:bonedata
  begin
     id 1 
     name lhipjoint
     direction 0.578396 -0.714046 0.394458 
     length 2.21935 
     axis 0 0 0  XYZ
  end
  begin
     id 2 
     name lfemur
     direction 0.34202 -0.939693 0  
     length 6.39105  
     axis 0 0 20  XYZ
    dof rx ry rz
    limits (-160.0 20.0)
           (-70.0 70.0)
           (-60.0 70.0)
  end
  begin
     id 3 
     name ltibia
     direction 0.34202 -0.939693 0   
     length 6.99037   
     axis 0 0 20   XYZ
    dof rx
    limits (-10.0 170.0)
  end
  begin
     id 4 
     name lfoot
     direction 0.0582372 -0.160005 0.985397   
     length 2.06111   
     axis -90 7.62852e-016 20   XYZ
    dof rx rz
    limits (-45.0 90.0)
           (-70.0 20.0)
  end
  begin
     id 5 
     name ltoes
     direction 1.53556e-011 -4.21875e-011 1   
     length 1.04074   
     axis -90 7.62852e-016 20   XYZ
    dof rx
    limits (-90.0 20.0)
  end
  begin
     id 6 
     name rhipjoint
     direction -0.558179 -0.726269 0.40121   
     length 2.182  
     axis 0 0 0  XYZ 
  end
  begin
     id 7 
     name rfemur
     direction -0.34202 -0.939693 0   
     length 6.51172   
     axis 0 0 -20   XYZ
    dof rx ry rz
    limits (-160.0 20.0)
           (-70.0 70.0)
           (-70.0 60.0)
  end
  begin
     id 8 
     name rtibia
     direction -0.34202 -0.939693 0   
     length 7.02607   
     axis 0 0 -20   XYZ
    dof rx
    limits (-10.0 170.0)
 end
 begin
     id 9 
     name rfoot
     direction -0.0788856 -0.216737 0.973038   
     length 1.96734  
     axis -90 -7.62852e-016 -20   XYZ
    dof rx rz
    limits (-45.0 90.0)
           (-20.0 70.0)
  end
  begin
     id 10 
     name rtoes
     direction -1.53567e-011 -4.21783e-011 1   
     length 0.990825   
     axis -90 -7.62852e-016 -20   XYZ
    dof rx
    limits (-90.0 20.0)
  end
  begin
     id 11 
     name lowerback
     direction 0.00668177 0.999323 -0.0361741   
     length 1.7655   
     axis 0 0 0   XYZ
    dof rx ry rz
    limits (-20.0 45.0)
           (-30.0 30.0)
           (-30.0 30.0)
  end
  begin
     id 12 
     name upperback
     direction -0.00222086 0.99851 0.0545167   
     length 1.74912   
     axis 0 0 0   XYZ
    dof rx ry rz
    limits (-20.0 45.0)
           (-30.0 30.0)
           (-30.0 30.0)
  end
  begin
     id 13 
     name thorax
     direction -0.00733971 0.997496 0.0703443   
     length 1.75715   
     axis 0 0 0   XYZ
    dof rx ry rz
    limits (-20.0 45.0)
           (-30.0 30.0)
           (-30.0 30.0)
  end
  begin
     id 14 
     name lowerneck
     direction 0.0279797 0.994795 0.0979765   
     length 1.46939   
     axis 0 0 0   XYZ
    dof rx ry rz
    limits (-20.0 45.0)
           (-30.0 30.0)
           (-30.0 30.0)
  end
  begin
     id 15 
     name upperneck
     direction 0.00339187 0.976776 -0.214238   
     length 1.48018   
     axis 0 0 0   XYZ
    dof rx ry rz
    limits (-20.0 45.0)
           (-30.0 30.0)
           (-30.0 30.0)
  end
  begin
     id 16
     name head
     direction -0.00263506 0.996603 -0.0823096  
     length 1.4976  
     axis 0 0 0   XYZ
    dof rx ry rz
    limits (-20.0 45.0)
           (-30.0 30.0)
           (-30.0 30.0)
  end
  begin
     id 17 
     name lclavicle
     direction 0.894044 0.44508 -0.0508781  
     length 3.03024  
     axis 0 0 0   XYZ
    dof ry rz
    limits (-20.0 10.0)
           (0.0 20.0)
  end
  begin
     id 18 
     name lhumerus
     direction 1 -4.48961e-011 -2.39475e-018   
     length 4.4661   
     axis 180 -30 -90   XYZ
    dof rx ry rz
    limits (-60.0 90.0)
           (-90.0 90.0)
           (-90.0 90.0)
  end
  begin
     id 19
     name lradius
     direction 1 -4.48961e-011 9.29328e-028   
     length 3.41414   
     axis 180 -30 -90   XYZ
    dof rx
    limits (-10.0 170.0)
  end
  begin
     id 20
     name lwrist
     direction 1 -4.48985e-011 1.53461e-026   
     length 1.70707   
     axis -1.09697e-014 90 90   XYZ
    dof ry
    limits (-180.0 0.0)
 end
  begin
     id 21 
     name lhand
     direction 1 -4.48966e-011 3.06923e-026   
     length 0.328298   
     axis -1.95843e-014 90 90   XYZ
    dof rx rz
    limits (-90.0 90.0)
           (-45.0 45.0)
  end
  begin
     id 22 
     name lfingers
     direction 1 -4.48893e-011 6.13845e-026   
     length 0.264682   
     axis -3.91686e-014 90 90   XYZ
    dof rx
    limits (0.0 90.0)
  end
  begin
     id 23
     name lthumb
     direction 0.707107 -6.34876e-011 0.707107   
     length 0.380032   
     axis -90 45 2.85299e-015   XYZ
    dof rx rz
    limits (-45.0 45.0)
           (-45.0 45.0)
  end
  begin
     id 24 
     name rclavicle
     direction -0.936955 0.347862 -0.0332887   
     length 3.26927  
     axis 0 0 0   XYZ 
    dof ry rz
    limits (-10.0 20.0)
           (-20.0 0.0)
  end
  begin
     id 25 
     name rhumerus
     direction -1 -4.4896e-011 1.78637e-018  
     length 4.40431   
     axis 180 30 90   XYZ
    dof rx ry rz
    limits (-90.0 60.0)
           (-90.0 90.0)
           (-90.0 90.0)
  end
  begin
     id 26 
     name rradius
     direction -1 -4.48955e-011 9.34036e-027   
     length 3.04688   
     axis 180 30 90   XYZ
    dof rx
    limits (-10.0 170.0)
  end
  begin
     id 27 
     name rwrist
     direction -1 -4.49011e-011 1.53461e-026   
     length 1.52344   
     axis -1.09697e-014 -90 -90   XYZ
    dof ry
    limits (-180.0 0.0)
  end
  begin
     id 28
     name rhand
     direction -1 -4.48834e-011 3.06923e-026   
     length 0.500489   
     axis -1.95843e-014 -90 -90   XYZ
    dof rx rz
    limits (-90.0 90.0)
           (-45.0 45.0)
  end
  begin
     id 29
     name rfingers
     direction -1 -4.48967e-011 6.13845e-026   
     length 0.403507   
     axis -3.91686e-014 -90 -90   XYZ
    dof rx
    limits (0.0 90.0)
  end
  begin
     id 30
     name rthumb
     direction -0.707107 -6.34826e-011 0.707107   
     length 0.579358   
     axis -90 -45 -2.85299e-015   XYZ
    dof rx rz
    limits (-45.0 45.0)
           (-45.0 45.0)
  end
:hierarchy
  begin
    root lhipjoint rhipjoint lowerback
    lhipjoint lfemur
    lfemur ltibia
    ltibia lfoot
    lfoot ltoes
    rhipjoint rfemur
    rfemur rtibia
    rtibia rfoot
    rfoot rtoes
    lowerback upperback
    upperback thorax
    thorax lowerneck lclavicle rclavicle
    lowerneck upperneck
    upperneck head
    lclavicle lhumerus
    lhumerus lradius
    lradius lwrist
    lwrist lhand lthumb
    lhand lfingers
    rclavicle rhumerus
    rhumerus rradius
    rradius rwrist
    rwrist rhand rthumb
    rhand rfingers
  end

#!OML:ASF H:\IndianDance\Patient Classification 1\Patient 1\Session 1\dancer.ASF
:FULLY-SPECIFIED
:DEGREES
79
root -27.2986 13.6426 21.85 -175.016 -3.15874 -176.996
lowerback 5.88699 1.79481 2.0325
upperback -6.42728 2.42391 0.542503
thorax -10.0807 0.937379 -0.889885
lowerneck -19.7955 0.115581 0.35864
upperneck 26.1356 -1.43398 2.23829
head 11.883 -0.624095 0.481021
rclavicle 3.71479e-015 2.48481e-015
rhumerus -16.6612 27.965 -16.3011
rradius 78.6358
rwrist -56.3999
rhand -22.1916 3.81847
rfingers 7.12502
rthumb 4.22376 -26.1194
lclavicle 3.71479e-015 2.48481e-015
lhumerus -6.03368 -6.5228 7.44543
lradius 31.079
lwrist 10.5231
lhand 16.184 12.1556
lfingers 7.12502
lthumb 40.9649 37.0831
rfemur -39.9561 -40.7812 23.0893
rtibia 71.4085
rfoot -27.3028 -11.8565
rtoes 6.87707
lfemur -38.7692 26.0524 -22.3009
ltibia 69.2372
lfoot -32.0231 8.16299
ltoes 16.7839
80
root -27.3152 13.6631 21.8587 -175.011 -3.17324 -177.091
lowerback 5.88871 1.91937 2.01618
upperback -6.42286 2.5856 0.458949
thorax -10.069 1.01469 -0.993012
lowerneck -19.9651 0.652549 0.826453
upperneck 26.428 -0.865235 2.2937
head 12.0246 -0.316015 0.513632
rclavicle -1.47101e-014 -7.15625e-015
rhumerus -17.0604 28.0829 -17.6227
rradius 82.1628
rwrist -59.1751
rhand -21.9917 3.13758
rfingers 7.12502
rthumb 4.41674 -26.7964
lclavicle -1.47101e-014 -7.15625e-015
lhumerus -5.9537 -5.8923 7.87328
lradius 31.0313
lwrist 10.2845
lhand 16.6251 12.6774
lfingers 7.12502
lthumb 41.3791 37.4721
rfemur -39.9001 -40.445 22.7801
rtibia 71.4256
rfoot -26.8682 -11.7735
rtoes 6.41538
lfemur -38.5847 25.8061 -22.4928
ltibia 68.8409
lfoot -32.028 8.12493
ltoes 17.7195
81
root -27.3321 13.6842 21.8681 -175.006 -3.17771 -177.2
lowerback 5.89982 2.05687 1.99581
upperback -6.41718 2.76423 0.367429
thorax -10.0603 1.1003 -1.10505
lowerneck -20.1122 1.1792 1.29284
upperneck 26.6945 -0.31539 2.36687
head 12.1557 -0.0137672 0.552092
rclavicle -1.01877e-015 -4.67144e-015
rhumerus -17.3653 28.2456 -19.0431
rradius 85.5907
rwrist -61.5392
rhand -21.7029 2.38128
rfingers 7.12502
rthumb 4.6957 -27.5467
lclavicle -1.01877e-015 -4.67144e-015
lhumerus -5.85958 -5.38544 8.31579
lradius 31.0004
lwrist 9.97778
lhand 16.981 13.1179
lfingers 7.12502
lthumb 41.713 37.8034
rfemur -39.8533 -40.0713 22.4286
rtibia 71.4808
rfoot -26.3862 -11.6382
rtoes 5.97476
lfemur -38.3943 25.5728 -22.7024
ltibia 68.4298
lfoot -32.0436 8.06363
ltoes 18.7652
82
root -27.3491 13.7056 21.8783 -175.005 -3.17553 -177.315
lowerback 5.92088 2.20322 1.98147
upperback -6.40825 2.95541 0.267543
thorax -10.0524 1.19142 -1.23146
lowerneck -20.2378 1.69879 1.75226
upperneck 26.9359 0.220447 2.46326
head 12.2763 0.285029 0.600023
rclavicle -1.00262e-014 0
rhumerus -17.5544 28.4719 -20.568
rradius 88.8731
rwrist -63.4324
rhand -21.3363 1.64284
rfingers 7.12502
rthumb 5.04967 -28.277
lclavicle -1.00262e-014 0
lhumerus -5.75162 -4.97947 8.76644
lradius 30.9893
lwrist 9.61126
lhand 17.2455 13.4934
lfingers 7.12502
lthumb 41.9609 38.0965
rfemur -39.8121 -39.6681 22.0424
rtibia 71.5733
rfoot -25.8764 -11.4536
rtoes 5.54438
lfemur -38.1995 25.3492 -22.9205
ltibia 68.0114
lfoot -32.0484 8.02584
ltoes 19.7356
83
root -27.366 13.727 21.8889 -175.009 -3.16161 -177.433
lowerback 5.94615 2.35686 1.96684
upperback -6.3945 3.15675 0.167562
thorax -10.0407 1.28776 -1.35933
lowerneck -20.3461 2.21237 2.19208
upperneck 27.1589 0.746405 2.58688
head 12.3891 0.581358 0.661679
rclavicle -5.88154e-014 -1.56046e-014
rhumerus -17.6061 28.7784 -22.1954
rradius 91.9892
rwrist -64.9117
rhand -20.9774 0.915289
rfingers 7.12502
rthumb 5.39616 -28.996
lclavicle -5.88154e-014 -1.56046e-014
lhumerus -5.64101 -4.62579 9.23742
lradius 30.995
lwrist 9.17969
lhand 17.4535 13.8071
lfingers 7.12502
lthumb 42.1558 38.3447
rfemur -39.7721 -39.2258 21.6309
rtibia 71.6988
rfoot -25.3453 -11.2316
rtoes 5.14098
lfemur -38.0026 25.1461 -23.1393
ltibia 67.5937
lfoot -32.0186 8.04631
ltoes 20.4628
84
root -27.3826 13.7477 21.8999 -175.018 -3.15065 -177.549
lowerback 5.96808 2.50982 1.96488
upperback -6.37278 3.3586 0.0652219
thorax -10.0166 1.38387 -1.49645
lowerneck -20.4347 2.71996 2.61053
upperneck 27.3593 1.26176 2.74347
head 12.4913 0.875455 0.739251
rclavicle 4.63417e-015 2.5842e-015
rhumerus -17.5043 29.1881 -23.9227
rradius 94.9409
rwrist -66.0848
rhand -20.7006 0.278276
rfingers 7.12502
rthumb 5.6634 -29.626
lclavicle 4.63417e-015 2.5842e-015
lhumerus -5.52405 -4.32452 9.71166
lradius 31.0166
lwrist 8.71574
lhand 17.597 14.0705
lfingers 7.12502
lthumb 42.2903 38.5625
rfemur -39.7293 -38.7666 21.2078
rtibia 71.855
rfoot -24.8216 -10.9912
rtoes 4.76974
lfemur -37.8098 24.9531 -23.3535
ltibia 67.1869
lfoot -31.9016 8.22471
ltoes 20.5701
85
root -27.3988 13.7675 21.911 -175.036 -3.151 -177.661
lowerback 5.98733 2.65763 1.9843
upperback -6.34604 3.55542 -0.0422846
thorax -9.98314 1.47618 -1.64985
lowerneck -20.5056 3.22059 3.00123
upperneck 27.5469 1.76398 2.93958
head 12.5863 1.16604 0.835804
rclavicle -1.3977e-014 1.19271e-015
rhumerus -17.2688 29.7207 -25.7734
rradius 97.7313
rwrist -67.0215
rhand -20.4219 -0.203823
rfingers 7.12502
rthumb 5.93253 -30.1008
lclavicle -1.3977e-014 1.19271e-015
lhumerus -5.39919 -4.04343 10.1941
lradius 31.0463
lwrist 8.20895
lhand 17.6932 14.3021
lfingers 7.12502
lthumb 42.3804 38.7634
rfemur -39.6752 -38.3016 20.7785
rtibia 72.0411
rfoot -24.2992 -10.7662
rtoes 4.31556
lfemur -37.6205 24.7676 -23.559
ltibia 66.7976
lfoot -31.73 8.50842
ltoes 20.2687
86
root -27.4144 13.786 21.922 -175.062 -3.16672 -177.759
lowerback 6.00278 2.80181 2.02762
upperback -6.31486 3.75012 -0.146557
thorax -9.94036 1.56625 -1.81224
lowerneck -20.5552 3.70761 3.34755
upperneck 27.7196 2.2483 3.18003
head 12.6713 1.44983 0.954907
rclavicle -4.15087e-014 1.98785e-015
rhumerus -16.8955 30.3918 -27.7251
rradius 100.347
rwrist -67.7852
rhand -20.1238 -0.516167
rfingers 7.12502
rthumb 6.22034 -30.4048
lclavicle -4.15087e-014 1.98785e-015
lhumerus -5.26003 -3.78658 10.6966
lradius 31.0769
lwrist 7.67166
lhand 17.7341 14.5102
lfingers 7.12502
lthumb 42.4187 38.9584
rfemur -39.6014 -37.8345 20.3578
rtibia 72.2607
rfoot -23.8023 -10.5336
rtoes 3.98208
lfemur -37.4382 24.583 -23.7439
ltibia 66.4328
lfoot -31.5028 8.88534
ltoes 19.6
87
root -27.4291 13.8032 21.933 -175.098 -3.20351 -177.843
lowerback 6.0089 2.94724 2.09746
upperback -6.27944 3.94892 -0.253498
thorax -9.88416 1.65683 -1.99177
lowerneck -20.5878 4.17517 3.673
upperneck 27.8815 2.70425 3.4437
head 12.7487 1.72177 1.08266
rclavicle 1.11816e-015 1.19271e-015
rhumerus -16.4156 31.179 -29.8055
rradius 102.737
rwrist -68.3894
rhand -19.7665 -0.659893
rfingers 7.12502
rthumb 6.56525 -30.5381
lclavicle 1.11816e-015 1.19271e-015
lhumerus -5.07691 -3.55896 11.2177
lradius 31.1
lwrist 7.1172
lhand 17.7419 14.6982
lfingers 7.12502
lthumb 42.426 39.1439
rfemur -39.5005 -37.3681 19.955
rtibia 72.5251
rfoot -23.3447 -10.3326
rtoes 3.69157
lfemur -37.263 24.3993 -23.907
ltibia 66.0948
lfoot -31.234 9.33396
ltoes 18.6461
88
root -27.4428 13.8188 21.9437 -175.14 -3.26383 -177.914
lowerback 6.00796 3.09792 2.18895
upperback -6.2446 4.15623 -0.365951
thorax -9.82081 1.75004 -2.18948
lowerneck -20.5948 4.61266 3.95337
upperneck 28.0256 3.11703 3.75738
head 12.8125 1.97613 1.23014
rclavicle 2.34814e-015 2.78299e-015
rhumerus -15.8454 32.1386 -31.9637
rradius 104.972
rwrist -68.8853
rhand -19.3809 -0.663415
rfingers 7.12502
rthumb 6.9375 -30.5297
lclavicle 2.34814e-015 2.78299e-015
lhumerus -4.83146 -3.37955 11.7545
lradius 31.1093
lwrist 6.55685
lhand 17.7263 14.8697
lfingers 7.12502
lthumb 42.4114 39.3204
rfemur -39.3747 -36.9252 19.5756
rtibia 72.8564
rfoot -22.9334 -10.1758
rtoes 3.38318
lfemur -37.0973 24.2113 -24.0519
ltibia 65.7845
lfoot -30.9827 9.75713
ltoes 17.8076
